<?xml version="1.0" encoding="UTF-8" standalone="no"?>
<!DOCTYPE svg PUBLIC "-//W3C//DTD SVG 1.1//EN" "http://www.w3.org/Graphics/SVG/1.1/DTD/svg11.dtd">
<svg width="100%" height="100%" viewBox="0 0 1024 1024" version="1.1" xmlns="http://www.w3.org/2000/svg" xmlns:xlink="http://www.w3.org/1999/xlink" xml:space="preserve" xmlns:serif="http://www.serif.com/" style="fill-rule:evenodd;clip-rule:evenodd;stroke-linejoin:round;stroke-miterlimit:2;">
    <g id="Transparent-background" serif:id="Transparent background" transform="matrix(1.07563,0,0,1.17972,-45.1765,-67.2442)">
        <rect x="42" y="57" width="952" height="868" style="fill:none;"/>
    </g>
    <path id="top-right-lower-flank" serif:id="top right lower flank" d="M583.967,207.629L570.286,195.259C570.286,195.259 602.109,275.618 617.674,315.933C638.846,370.77 671.23,448.106 685.497,489.711C680.428,473.688 604.747,255.495 583.967,207.629" style="fill:url(#_Radial1);"/>
    <path id="top-right-upper-flank" serif:id="top right upper flank" d="M789.008,205.822C800.698,202.508 816.341,191.999 827.233,183.376C817.847,190.335 807.732,193.748 797.675,195.488C787.619,197.228 777.62,197.296 768.467,197.565L570.286,195.259L583.967,207.629L744.081,209.183C765.01,209.183 775.523,209.646 789.008,205.822" style="fill:url(#_Radial2);"/>
    <path id="top-left-lower-flank" serif:id="top left lower flank" d="M476.102,198.34L466.619,205.822C410.721,327.222 376.086,453.346 335.948,578.248C366.084,496.933 396.096,414.578 426.502,331.987C442.894,287.465 459.4,242.874 476.102,198.34Z" style="fill:url(#_Radial3);"/>
    <path id="top-left-upper-flank" serif:id="top left upper flank" d="M157.212,121.569C183.124,169.836 229.297,191.083 251.233,199.809C264.385,205.04 281.088,208.433 311.872,209.13L466.619,205.822L476.102,198.34L285.471,197.198C249.799,195.003 228.784,188.34 193.412,163.357C167.028,144.722 157.207,121.569 157.207,121.569" style="fill:url(#_Radial4);"/>
    <path id="bottom-left-flank" serif:id="bottom left flank" d="M371.395,794.089L515.383,332.865L516.503,248.582L354.092,760.422L354.098,760.434C360.039,772.421 365.812,783.672 371.388,794.077" style="fill:url(#_Linear5);"/>
    <path id="main-middle-bottom" serif:id="main middle bottom" d="M634.261,856.011C607.647,796.897 544.43,639.78 513.891,537.624C485.541,657.237 474.819,689.458 408.584,853.948C397.769,840.387 385.181,819.816 371.395,794.089L515.383,332.865L673.844,776.765L634.261,856.011" style="fill:url(#_Radial6);"/>
    <path id="main-middle-top" serif:id="main middle top" d="M335.948,578.248C382.33,453.098 428.416,325.485 476.102,198.34L285.471,197.198C249.799,195.003 228.784,188.34 193.412,163.357C167.028,144.722 157.207,121.569 157.207,121.569L874.351,122.595C858.99,162.994 836.536,176.478 827.233,183.376C817.847,190.335 807.732,193.748 797.675,195.488C787.619,197.228 777.62,197.296 768.467,197.565L570.286,195.259C570.286,195.259 602.109,275.618 617.674,315.933C638.846,370.77 671.23,448.106 685.497,489.711C694.088,518.979 706.271,564.515 706.271,564.515L672.66,652.885L516.503,248.582L369.18,712.872L335.948,578.248Z" style="fill:url(#_Radial7);"/>
    <path id="main-left" serif:id="main left" d="M354.092,760.422C306.083,663.529 247.574,519.198 198.251,391.388C148.929,263.578 108.794,152.289 97.531,121.48C111.15,121.495 131.576,121.526 157.212,121.569L157.207,121.569C157.207,121.569 277.634,417.158 335.948,578.248L369.18,712.872L354.092,760.422Z" style="fill:url(#_Radial8);"/>
    <path id="main-right---bottom-right-flank" serif:id="main right + bottom right flank" d="M673.844,776.765L515.383,332.865M515.383,332.865L516.503,248.582L672.66,652.885L874.351,122.595L929.709,122.545C876.355,331.806 792.571,534.841 689.91,745.867L673.844,776.765" style="fill:url(#_Radial9);"/>
    <defs>
        <radialGradient id="_Radial1" cx="0" cy="0" r="1" gradientUnits="userSpaceOnUse" gradientTransform="matrix(88,168,-116.772,-0.709818,507,255)"><stop offset="0" style="stop-color:rgb(108,0,57);stop-opacity:1"/><stop offset="0.81" style="stop-color:rgb(166,0,88);stop-opacity:1"/><stop offset="1" style="stop-color:rgb(199,0,106);stop-opacity:1"/></radialGradient>
        <radialGradient id="_Radial2" cx="0" cy="0" r="1" gradientUnits="userSpaceOnUse" gradientTransform="matrix(-233.321,15.8184,-4,-59,757,153)"><stop offset="0" style="stop-color:rgb(108,0,57);stop-opacity:1"/><stop offset="0.63" style="stop-color:rgb(137,0,72);stop-opacity:1"/><stop offset="1" style="stop-color:rgb(199,0,106);stop-opacity:1"/></radialGradient>
        <radialGradient id="_Radial3" cx="0" cy="0" r="1" gradientUnits="userSpaceOnUse" gradientTransform="matrix(58,-215,73.6905,72.5238,476,401)"><stop offset="0" style="stop-color:rgb(108,0,57);stop-opacity:1"/><stop offset="0.81" style="stop-color:rgb(166,0,88);stop-opacity:1"/><stop offset="1" style="stop-color:rgb(199,0,106);stop-opacity:1"/></radialGradient>
        <radialGradient id="_Radial4" cx="0" cy="0" r="1" gradientUnits="userSpaceOnUse" gradientTransform="matrix(-4,69,-284.452,-16.49,297,154)"><stop offset="0" style="stop-color:rgb(108,0,57);stop-opacity:1"/><stop offset="0.81" style="stop-color:rgb(166,0,88);stop-opacity:1"/><stop offset="1" style="stop-color:rgb(199,0,106);stop-opacity:1"/></radialGradient>
        <linearGradient id="_Linear5" x1="0" y1="0" x2="1" y2="0" gradientUnits="userSpaceOnUse" gradientTransform="matrix(-14,-4,4,-14,380,764)"><stop offset="0" style="stop-color:rgb(199,0,106);stop-opacity:1"/><stop offset="1" style="stop-color:rgb(108,0,57);stop-opacity:1"/></linearGradient>
        <radialGradient id="_Radial6" cx="0" cy="0" r="1" gradientUnits="userSpaceOnUse" gradientTransform="matrix(363,-414,140.21,250.66,254,912)"><stop offset="0" style="stop-color:rgb(108,0,57);stop-opacity:1"/><stop offset="0.46" style="stop-color:rgb(166,0,88);stop-opacity:1"/><stop offset="0.52" style="stop-color:rgb(175,0,93);stop-opacity:1"/><stop offset="0.73" style="stop-color:rgb(255,0,135);stop-opacity:1"/><stop offset="1" style="stop-color:rgb(199,0,106);stop-opacity:1"/></radialGradient>
        <radialGradient id="_Radial7" cx="0" cy="0" r="1" gradientUnits="userSpaceOnUse" gradientTransform="matrix(-456,495,-519.35,-651.064,484,157)"><stop offset="0" style="stop-color:rgb(255,0,135);stop-opacity:1"/><stop offset="0.77" style="stop-color:rgb(195,2,105);stop-opacity:1"/><stop offset="1" style="stop-color:rgb(108,0,57);stop-opacity:1"/></radialGradient>
        <radialGradient id="_Radial8" cx="0" cy="0" r="1" gradientUnits="userSpaceOnUse" gradientTransform="matrix(146,-60,141.125,343.404,152,458)"><stop offset="0" style="stop-color:rgb(108,0,57);stop-opacity:1"/><stop offset="0.81" style="stop-color:rgb(166,0,88);stop-opacity:1"/><stop offset="1" style="stop-color:rgb(199,0,106);stop-opacity:1"/></radialGradient>
        <radialGradient id="_Radial9" cx="0" cy="0" r="1" gradientUnits="userSpaceOnUse" gradientTransform="matrix(63,366,-112.388,-46.5723,634,395)"><stop offset="0" style="stop-color:rgb(74,0,39);stop-opacity:1"/><stop offset="0.24" style="stop-color:rgb(49,0,26);stop-opacity:1"/><stop offset="0.75" style="stop-color:rgb(166,0,88);stop-opacity:1"/><stop offset="1" style="stop-color:rgb(199,0,106);stop-opacity:1"/></radialGradient>
    </defs>
</svg>
