<?xml version="1.0" encoding="UTF-8" standalone="no"?>
<!DOCTYPE svg PUBLIC "-//W3C//DTD SVG 1.1//EN" "http://www.w3.org/Graphics/SVG/1.1/DTD/svg11.dtd">
<svg width="100%" height="100%" viewBox="0 0 1024 1024" version="1.1" xmlns="http://www.w3.org/2000/svg" xmlns:xlink="http://www.w3.org/1999/xlink" xml:space="preserve" style="fill-rule:evenodd;clip-rule:evenodd;stroke-linejoin:round;stroke-miterlimit:2;">
    <g transform="matrix(0.941792,0,0,0.941792,26.6799,26.6799)">
        <clipPath id="_clip1">
            <rect x="-28.329" y="-28.329" width="1087.29" height="1087.29"/>
        </clipPath>
        <g clip-path="url(#_clip1)">
            <g transform="matrix(1.06181,0,0,1.06181,-28.3289,-28.3289)">
                <path d="M583.967,207.629L570.286,195.259C570.286,195.259 602.109,275.618 617.674,315.933C638.846,370.77 671.23,448.106 685.497,489.711C680.428,473.688 604.747,255.495 583.967,207.629" style="fill:rgb(255,0,128);"/>
                <path d="M583.967,207.629L570.286,195.259C570.286,195.259 602.109,275.618 617.674,315.933C638.846,370.77 671.23,448.106 685.497,489.711C680.428,473.688 604.747,255.495 583.967,207.629" style="fill:url(#_Linear2);"/>
                <path d="M476.102,198.34L466.619,205.822C410.721,327.222 376.086,453.346 335.948,578.248C366.084,496.933 396.096,414.578 426.502,331.987C442.894,287.465 459.4,242.874 476.102,198.34Z" style="fill:rgb(255,0,128);"/>
                <path d="M476.102,198.34L466.619,205.822C410.721,327.222 376.086,453.346 335.948,578.248C366.084,496.933 396.096,414.578 426.502,331.987C442.894,287.465 459.4,242.874 476.102,198.34Z" style="fill:url(#_Linear3);"/>
                <path d="M789.008,205.822C800.698,202.508 816.341,191.999 827.233,183.376C817.847,190.335 807.732,193.748 797.675,195.488C787.619,197.228 777.62,197.296 768.467,197.565L570.286,195.259L583.967,207.629L744.081,209.183C765.01,209.183 775.523,209.646 789.008,205.822" style="fill:rgb(255,0,128);"/>
                <path d="M789.008,205.822C800.698,202.508 816.341,191.999 827.233,183.376C817.847,190.335 807.732,193.748 797.675,195.488C787.619,197.228 777.62,197.296 768.467,197.565L570.286,195.259L583.967,207.629L744.081,209.183C765.01,209.183 775.523,209.646 789.008,205.822" style="fill:url(#_Linear4);"/>
                <path d="M157.212,121.569C183.124,169.836 229.297,191.083 251.233,199.809C264.385,205.04 281.088,208.433 311.872,209.13L466.619,205.822L476.102,198.34L285.471,197.198C249.799,195.003 228.784,188.34 193.412,163.357C167.028,144.722 157.207,121.569 157.207,121.569" style="fill:rgb(255,0,128);"/>
                <path d="M157.212,121.569C183.124,169.836 229.297,191.083 251.233,199.809C264.385,205.04 281.088,208.433 311.872,209.13L466.619,205.822L476.102,198.34L285.471,197.198C249.799,195.003 228.784,188.34 193.412,163.357C167.028,144.722 157.207,121.569 157.207,121.569" style="fill:url(#_Linear5);"/>
                <path d="M371.395,794.089L515.383,332.865L516.503,248.582L354.092,760.422L354.098,760.434C360.039,772.421 365.812,783.672 371.388,794.077" style="fill:rgb(255,0,128);"/>
                <path d="M371.395,794.089L515.383,332.865L516.503,248.582L354.092,760.422L354.098,760.434C360.039,772.421 365.812,783.672 371.388,794.077" style="fill:url(#_Linear6);"/>
                <path d="M371.395,794.089L515.383,332.865L516.503,248.582L354.092,760.422L354.098,760.434C360.039,772.421 365.812,783.672 371.388,794.077" style="fill:url(#_Linear7);"/>
                <path d="M634.261,856.011C607.647,796.897 544.43,639.78 513.891,537.624C485.541,657.237 474.819,689.458 408.584,853.948C397.769,840.387 385.181,819.816 371.395,794.089L515.383,332.865L673.844,776.765L634.261,856.011" style="fill:rgb(255,0,128);"/>
                <path d="M634.261,856.011C607.647,796.897 544.43,639.78 513.891,537.624C485.541,657.237 474.819,689.458 408.584,853.948C397.769,840.387 385.181,819.816 371.395,794.089L515.383,332.865L673.844,776.765L634.261,856.011" style="fill:url(#_Radial8);"/>
                <path d="M634.261,856.011C607.647,796.897 544.43,639.78 513.891,537.624C485.541,657.237 474.819,689.458 408.584,853.948C397.769,840.387 385.181,819.816 371.395,794.089L515.383,332.865L673.844,776.765L634.261,856.011" style="fill:url(#_Linear9);"/>
                <path d="M335.948,578.248C382.33,453.098 428.416,325.485 476.102,198.34L285.471,197.198C249.799,195.003 228.784,188.34 193.412,163.357C167.028,144.722 157.207,121.569 157.207,121.569L874.351,122.595C858.99,162.994 836.536,176.478 827.233,183.376C817.847,190.335 807.732,193.748 797.675,195.488C787.619,197.228 777.62,197.296 768.467,197.565L570.286,195.259C570.286,195.259 602.109,275.618 617.674,315.933C638.846,370.77 671.23,448.106 685.497,489.711C694.088,518.979 706.271,564.515 706.271,564.515L672.66,652.885L516.503,248.582L369.18,712.872M369.18,712.872L354.092,760.422C306.083,663.529 247.574,519.198 198.251,391.388C148.929,263.578 108.794,152.289 97.531,121.48C111.15,121.495 131.576,121.526 157.212,121.569L157.207,121.569C157.207,121.569 277.634,417.158 335.948,578.248" style="fill:rgb(255,0,128);"/>
                <path d="M335.948,578.248C382.33,453.098 428.416,325.485 476.102,198.34L285.471,197.198C249.799,195.003 228.784,188.34 193.412,163.357C167.028,144.722 157.207,121.569 157.207,121.569L874.351,122.595C858.99,162.994 836.536,176.478 827.233,183.376C817.847,190.335 807.732,193.748 797.675,195.488C787.619,197.228 777.62,197.296 768.467,197.565L570.286,195.259C570.286,195.259 602.109,275.618 617.674,315.933C638.846,370.77 671.23,448.106 685.497,489.711C694.088,518.979 706.271,564.515 706.271,564.515L672.66,652.885L516.503,248.582L369.18,712.872M369.18,712.872L354.092,760.422C306.083,663.529 247.574,519.198 198.251,391.388C148.929,263.578 108.794,152.289 97.531,121.48C111.15,121.495 131.576,121.526 157.212,121.569L157.207,121.569C157.207,121.569 277.634,417.158 335.948,578.248" style="fill:url(#_Radial10);"/>
                <path d="M673.844,776.765L515.383,332.865M515.383,332.865L516.503,248.582L672.66,652.885L874.351,122.595L929.709,122.545C876.355,331.806 792.571,534.841 689.91,745.867L673.844,776.765" style="fill:rgb(255,0,128);"/>
                <path d="M673.844,776.765L515.383,332.865M515.383,332.865L516.503,248.582L672.66,652.885L874.351,122.595L929.709,122.545C876.355,331.806 792.571,534.841 689.91,745.867L673.844,776.765" style="fill:url(#_Linear11);"/>
                <path d="M673.844,776.765L515.383,332.865M515.383,332.865L516.503,248.582L672.66,652.885L874.351,122.595L929.709,122.545C876.355,331.806 792.571,534.841 689.91,745.867L673.844,776.765" style="fill:url(#_Radial12);"/>
            </g>
        </g>
    </g>
    <defs>
        <linearGradient id="_Linear2" x1="0" y1="0" x2="1" y2="0" gradientUnits="userSpaceOnUse" gradientTransform="matrix(-138,75,-75,-138,719,349)"><stop offset="0" style="stop-color:black;stop-opacity:1"/><stop offset="1" style="stop-color:black;stop-opacity:0"/></linearGradient>
        <linearGradient id="_Linear3" x1="0" y1="0" x2="1" y2="0" gradientUnits="userSpaceOnUse" gradientTransform="matrix(99.1024,38.294,-38.294,99.1024,377,350)"><stop offset="0" style="stop-color:black;stop-opacity:1"/><stop offset="1" style="stop-color:black;stop-opacity:0"/></linearGradient>
        <linearGradient id="_Linear4" x1="0" y1="0" x2="1" y2="0" gradientUnits="userSpaceOnUse" gradientTransform="matrix(6.46121e-15,-105.52,105.52,6.46121e-15,708,227)"><stop offset="0" style="stop-color:black;stop-opacity:1"/><stop offset="1" style="stop-color:black;stop-opacity:0"/></linearGradient>
        <linearGradient id="_Linear5" x1="0" y1="0" x2="1" y2="0" gradientUnits="userSpaceOnUse" gradientTransform="matrix(6.4558e-15,-105.431,105.431,6.4558e-15,329,227)"><stop offset="0" style="stop-color:black;stop-opacity:1"/><stop offset="1" style="stop-color:black;stop-opacity:0"/></linearGradient>
        <linearGradient id="_Linear6" x1="0" y1="0" x2="1" y2="0" gradientUnits="userSpaceOnUse" gradientTransform="matrix(-190,-100,100,-190,409,728)"><stop offset="0" style="stop-color:black;stop-opacity:1"/><stop offset="1" style="stop-color:black;stop-opacity:0"/></linearGradient>
        <linearGradient id="_Linear7" x1="0" y1="0" x2="1" y2="0" gradientUnits="userSpaceOnUse" gradientTransform="matrix(-4.50346,288.418,-288.418,-4.50346,516.503,248.582)"><stop offset="0" style="stop-color:black;stop-opacity:1"/><stop offset="1" style="stop-color:black;stop-opacity:0"/></linearGradient>
        <radialGradient id="_Radial8" cx="0" cy="0" r="1" gradientUnits="userSpaceOnUse" gradientTransform="matrix(148.682,-27.6169,86,463,589,736)"><stop offset="0" style="stop-color:rgb(255,0,128);stop-opacity:1"/><stop offset="1" style="stop-color:rgb(153,0,77);stop-opacity:1"/></radialGradient>
        <linearGradient id="_Linear9" x1="0" y1="0" x2="1" y2="0" gradientUnits="userSpaceOnUse" gradientTransform="matrix(-1.12078,542,-542,-1.12078,516.503,-1.7053e-13)"><stop offset="0" style="stop-color:black;stop-opacity:1"/><stop offset="1" style="stop-color:black;stop-opacity:0"/></linearGradient>
        <radialGradient id="_Radial10" cx="0" cy="0" r="1" gradientUnits="userSpaceOnUse" gradientTransform="matrix(-249.524,222.935,-218,-244,512,7)"><stop offset="0" style="stop-color:rgb(153,0,77);stop-opacity:1"/><stop offset="1" style="stop-color:rgb(255,0,128);stop-opacity:1"/></radialGradient>
        <linearGradient id="_Linear11" x1="0" y1="0" x2="1" y2="0" gradientUnits="userSpaceOnUse" gradientTransform="matrix(219,-138,138,219,588,655)"><stop offset="0" style="stop-color:black;stop-opacity:1"/><stop offset="1" style="stop-color:black;stop-opacity:0"/></linearGradient>
        <radialGradient id="_Radial12" cx="0" cy="0" r="1" gradientUnits="userSpaceOnUse" gradientTransform="matrix(1.79666e-14,293.418,-208.857,1.27888e-14,516.503,248.582)"><stop offset="0" style="stop-color:black;stop-opacity:1"/><stop offset="1" style="stop-color:black;stop-opacity:0"/></radialGradient>
    </defs>
</svg>
