<!-- Generated by Takken.io Image Generator on 2025-07-12T01:59:02.657756 -->
<svg width="2000" height="1200" xmlns="http://www.w3.org/2000/svg" viewBox="0 0 2000 1200"><rect width="2000" height="1200" fill="#282a36" /><text x="1000" y="108" text-anchor="middle" fill="#f8f8f2" font-family="monospace" font-size="48" font-weight="bold">Filesystem I/O Performance Comparison 📊</text><line x1="200" y1="1000.0" x2="1800" y2="1000.0" stroke="#6272a4" stroke-width="2" /><text x="120" y="1012.0" text-anchor="end" fill="#6272a4" font-family="monospace" font-size="24">0%</text><line x1="200" y1="810.0" x2="1800" y2="810.0" stroke="#6272a4" stroke-width="2" /><text x="120" y="822.0" text-anchor="end" fill="#6272a4" font-family="monospace" font-size="24">25%</text><line x1="200" y1="620.0" x2="1800" y2="620.0" stroke="#6272a4" stroke-width="2" /><text x="120" y="632.0" text-anchor="end" fill="#6272a4" font-family="monospace" font-size="24">50%</text><line x1="200" y1="430.0" x2="1800" y2="430.0" stroke="#6272a4" stroke-width="2" /><text x="120" y="442.0" text-anchor="end" fill="#6272a4" font-family="monospace" font-size="24">75%</text><line x1="200" y1="240.0" x2="1800" y2="240.0" stroke="#6272a4" stroke-width="2" /><text x="120" y="252.0" text-anchor="end" fill="#6272a4" font-family="monospace" font-size="24">100%</text><rect x="414" y="240.0" width="160" height="760.0" fill="#50fa7b" /><text x="494" y="218.0" text-anchor="middle" fill="#f8f8f2" font-family="monospace" font-size="28" font-weight="bold">100%</text><text x="494" y="1044" text-anchor="middle" fill="#f8f8f2" font-family="monospace" font-size="24">Windows Native</text><rect x="734" y="240.0" width="160" height="760.0" fill="#8be9fd" /><text x="814" y="218.0" text-anchor="middle" fill="#f8f8f2" font-family="monospace" font-size="28" font-weight="bold">100%</text><text x="814" y="1044" text-anchor="middle" fill="#f8f8f2" font-family="monospace" font-size="24">WSL Native</text><rect x="1054" y="931.6" width="160" height="68.39999999999999" fill="#ffb86c" /><text x="1134" y="909.6" text-anchor="middle" fill="#f8f8f2" font-family="monospace" font-size="28" font-weight="bold">9%</text><text x="1134" y="1044" text-anchor="middle" fill="#f8f8f2" font-family="monospace" font-size="24">WSL to Windows</text><rect x="1374" y="908.8" width="160" height="91.2" fill="#ff5555" /><text x="1454" y="886.8" text-anchor="middle" fill="#f8f8f2" font-family="monospace" font-size="28" font-weight="bold">12%</text><text x="1454" y="1044" text-anchor="middle" fill="#f8f8f2" font-family="monospace" font-size="24">Windows to WSL</text></svg>